<svg width="402" height="54" viewBox="0 0 402 54" fill="none" xmlns="http://www.w3.org/2000/svg">
<path d="M168.379 1.98743H172.252C173.018 1.98743 173.635 2.20422 174.104 2.63782C174.573 3.0675 174.807 3.67297 174.807 4.45422C174.807 5.1261 174.598 5.71204 174.18 6.21204C173.762 6.70813 173.119 6.95618 172.252 6.95618H169.545V10.5948H168.379V1.98743ZM173.629 4.46008C173.629 3.82727 173.395 3.39758 172.926 3.17102C172.668 3.04993 172.315 2.98938 171.866 2.98938H169.545V5.9718H171.866C172.389 5.9718 172.813 5.86047 173.137 5.63782C173.465 5.41516 173.629 5.02258 173.629 4.46008ZM181.151 5.93079C181.698 5.93079 182.13 5.82141 182.446 5.60266C182.766 5.38391 182.927 4.98938 182.927 4.41907C182.927 3.80579 182.704 3.38782 182.259 3.16516C182.02 3.04797 181.702 2.98938 181.304 2.98938H178.456V5.93079H181.151ZM177.29 1.98743H181.274C181.931 1.98743 182.472 2.08313 182.897 2.27454C183.706 2.64172 184.11 3.31946 184.11 4.30774C184.11 4.82336 184.003 5.24524 183.788 5.57336C183.577 5.90149 183.28 6.16516 182.897 6.36438C183.233 6.5011 183.485 6.68079 183.653 6.90344C183.825 7.1261 183.921 7.48743 183.94 7.98743L183.981 9.14172C183.993 9.46985 184.02 9.71399 184.063 9.87415C184.134 10.1476 184.259 10.3234 184.438 10.4015V10.5948H183.009C182.97 10.5206 182.938 10.4249 182.915 10.3077C182.891 10.1906 182.872 9.96399 182.856 9.62805L182.786 8.1925C182.759 7.63 182.55 7.25305 182.159 7.06165C181.936 6.95618 181.587 6.90344 181.11 6.90344H178.456V10.5948H177.29V1.98743ZM190.414 1.75305C191.933 1.75305 193.058 2.24133 193.789 3.2179C194.359 3.97961 194.644 4.95422 194.644 6.14172C194.644 7.42688 194.318 8.49524 193.665 9.3468C192.9 10.3468 191.808 10.8468 190.39 10.8468C189.066 10.8468 188.025 10.4093 187.267 9.5343C186.591 8.69055 186.253 7.62415 186.253 6.33508C186.253 5.17102 186.542 4.17493 187.121 3.3468C187.863 2.2843 188.96 1.75305 190.414 1.75305ZM190.531 9.80383C191.558 9.80383 192.3 9.43665 192.757 8.70227C193.218 7.96399 193.449 7.11633 193.449 6.1593C193.449 5.14758 193.183 4.33313 192.652 3.71594C192.124 3.09875 191.402 2.79016 190.484 2.79016C189.593 2.79016 188.867 3.0968 188.304 3.71008C187.742 4.31946 187.46 5.21985 187.46 6.41125C187.46 7.36438 187.701 8.16907 188.181 8.82532C188.665 9.47766 189.449 9.80383 190.531 9.80383ZM200.637 1.76477C201.445 1.76477 202.145 1.92102 202.734 2.23352C203.59 2.68274 204.113 3.46985 204.305 4.59485H203.15C203.01 3.96594 202.719 3.50891 202.277 3.22375C201.836 2.93469 201.279 2.79016 200.607 2.79016C199.811 2.79016 199.139 3.08899 198.592 3.68665C198.049 4.2843 197.777 5.17493 197.777 6.35852C197.777 7.38196 198.002 8.21594 198.451 8.86047C198.9 9.5011 199.633 9.82141 200.648 9.82141C201.426 9.82141 202.068 9.5968 202.576 9.14758C203.088 8.69446 203.35 7.96399 203.361 6.95618H200.666V5.98938H204.445V10.5948H203.695L203.414 9.48743C203.02 9.92102 202.67 10.2218 202.365 10.3898C201.854 10.6788 201.203 10.8234 200.414 10.8234C199.395 10.8234 198.518 10.4933 197.783 9.83313C196.982 9.005 196.582 7.86829 196.582 6.42297C196.582 4.98157 196.973 3.83508 197.754 2.98352C198.496 2.17102 199.457 1.76477 200.637 1.76477ZM211.135 5.93079C211.682 5.93079 212.114 5.82141 212.43 5.60266C212.751 5.38391 212.911 4.98938 212.911 4.41907C212.911 3.80579 212.688 3.38782 212.243 3.16516C212.004 3.04797 211.686 2.98938 211.288 2.98938H208.44V5.93079H211.135ZM207.274 1.98743H211.258C211.915 1.98743 212.456 2.08313 212.881 2.27454C213.69 2.64172 214.094 3.31946 214.094 4.30774C214.094 4.82336 213.987 5.24524 213.772 5.57336C213.561 5.90149 213.264 6.16516 212.881 6.36438C213.217 6.5011 213.469 6.68079 213.637 6.90344C213.809 7.1261 213.905 7.48743 213.924 7.98743L213.965 9.14172C213.977 9.46985 214.004 9.71399 214.047 9.87415C214.118 10.1476 214.243 10.3234 214.422 10.4015V10.5948H212.993C212.954 10.5206 212.922 10.4249 212.899 10.3077C212.876 10.1906 212.856 9.96399 212.84 9.62805L212.77 8.1925C212.743 7.63 212.534 7.25305 212.143 7.06165C211.92 6.95618 211.571 6.90344 211.094 6.90344H208.44V10.5948H207.274V1.98743ZM221.101 7.0675L219.794 3.26477L218.405 7.0675H221.101ZM219.185 1.98743H220.503L223.626 10.5948H222.349L221.476 8.01672H218.071L217.14 10.5948H215.944L219.185 1.98743ZM225.535 1.98743H227.205L229.677 9.26477L232.133 1.98743H233.785V10.5948H232.677V5.51477C232.677 5.33899 232.681 5.04797 232.689 4.64172C232.697 4.23547 232.701 3.79993 232.701 3.33508L230.246 10.5948H229.092L226.619 3.33508V3.59875C226.619 3.80969 226.623 4.13196 226.631 4.56555C226.642 4.99524 226.648 5.31165 226.648 5.51477V10.5948H225.535V1.98743Z" fill="#FAFAFA"/>
<rect width="402" height="36" transform="translate(0 17.1897)" fill="#0ECDF1"/>
<mask id="path-2-outside-1_273_966" maskUnits="userSpaceOnUse" x="44" y="16.1897" width="314" height="38" fill="black">
<rect fill="white" x="44" y="16.1897" width="314" height="38"/>
<path d="M45 52.8683V17.5111H49.244C50.3547 17.5111 51.1906 18.2209 51.7518 19.6406C52.313 21.0468 52.5936 23.1093 52.5936 25.8281V42.3817C52.5936 45.7299 52.3363 48.3147 51.8219 50.1361C51.3134 51.9576 50.419 52.8683 49.1388 52.8683H45ZM48.1041 46.6205H48.6389C49.206 46.6205 49.4895 45.991 49.4895 44.7321V26.491C49.4895 25.3125 49.4193 24.5558 49.2791 24.2209C49.1446 23.8727 48.8669 23.6986 48.446 23.6986H48.1041V46.6205Z"/>
<path d="M56.9771 52.8683V17.5111H59.9584V52.8683H56.9771Z"/>
<path d="M68.1125 53.1897C66.7036 53.1897 65.6865 52.3861 65.061 50.779C64.4414 49.1718 64.1315 46.6138 64.1315 43.1049V39.6495H67.183V44.0692C67.183 44.8861 67.2356 45.529 67.3408 45.9977C67.4519 46.4531 67.6419 46.6808 67.9108 46.6808C68.1914 46.6808 68.3843 46.4933 68.4895 46.1183C68.6006 45.7433 68.6561 45.1272 68.6561 44.2701C68.6561 43.1852 68.6093 42.2812 68.5158 41.558C68.4223 40.8214 68.2586 40.125 68.0248 39.4687C67.7968 38.7991 67.4782 38.0223 67.069 37.1384L65.6836 34.125C64.6489 31.8884 64.1315 29.3303 64.1315 26.4509C64.1315 23.4375 64.4355 21.1406 65.0435 19.5602C65.6573 17.9799 66.5429 17.1897 67.7003 17.1897C69.115 17.1897 70.1175 18.0535 70.708 19.7812C71.3042 21.5089 71.6023 24.1339 71.6023 27.6562H68.4632V25.2254C68.4632 24.7433 68.4018 24.3683 68.2791 24.1004C68.1622 23.8326 68.0014 23.6986 67.7968 23.6986C67.5513 23.6986 67.3701 23.8593 67.2531 24.1808C67.1421 24.4888 67.0865 24.8906 67.0865 25.3861C67.0865 25.8817 67.145 26.4174 67.2619 26.9933C67.3788 27.5692 67.6097 28.2321 67.9546 28.9821L69.7346 32.8995C70.0912 33.6763 70.4186 34.5 70.7167 35.3705C71.0149 36.2276 71.2545 37.2321 71.4357 38.3839C71.617 39.5223 71.7076 40.9151 71.7076 42.5625C71.7076 45.8839 71.4387 48.4888 70.9009 50.3772C70.3689 52.2522 69.4394 53.1897 68.1125 53.1897Z"/>
<path d="M79.5985 53.1897C78.482 53.1897 77.5818 52.3928 76.8978 50.7991C76.2197 49.2053 75.8807 46.9754 75.8807 44.1093V27.7968C75.8807 24.3683 76.1759 21.7433 76.7663 19.9218C77.3626 18.1004 78.33 17.1897 79.6687 17.1897C80.3994 17.1897 81.0483 17.4977 81.6153 18.1138C82.1882 18.7299 82.6383 19.654 82.9657 20.8861C83.293 22.1049 83.4567 23.6451 83.4567 25.5067V31.6138H80.3877V26.3906C80.3877 25.3326 80.3293 24.6227 80.2123 24.2611C80.0954 23.8861 79.9142 23.6986 79.6687 23.6986C79.3823 23.6986 79.1893 23.9397 79.09 24.4218C78.9906 24.8906 78.9409 25.5201 78.9409 26.3102V44.0089C78.9409 44.9866 79.0023 45.6763 79.125 46.0781C79.2536 46.4799 79.4349 46.6808 79.6687 46.6808C79.9317 46.6808 80.1159 46.433 80.2211 45.9375C80.3322 45.4419 80.3877 44.7991 80.3877 44.0089V37.6406H83.4918V44.3303C83.4918 47.4375 83.1498 49.6942 82.4659 51.1004C81.7819 52.4933 80.8261 53.1897 79.5985 53.1897Z"/>
<path d="M91.4704 53.1897C90.237 53.1897 89.2929 52.3393 88.6382 50.6384C87.9893 48.9241 87.6649 46.4531 87.6649 43.2254V26.4308C87.6649 23.404 87.9864 21.1071 88.6294 19.5401C89.2783 17.9732 90.2253 17.1897 91.4704 17.1897C92.7156 17.1897 93.6597 17.9732 94.3027 19.5401C94.9516 21.1071 95.276 23.404 95.276 26.4308V43.2254C95.276 46.4531 94.9486 48.9241 94.2939 50.6384C93.645 52.3393 92.7039 53.1897 91.4704 53.1897ZM91.4967 46.6808C91.9644 46.6808 92.1982 45.6428 92.1982 43.5669V26.3102C92.1982 24.5692 91.9702 23.6986 91.5143 23.6986C90.9999 23.6986 90.7427 24.5893 90.7427 26.3705V43.6071C90.7427 44.7053 90.8011 45.4955 90.918 45.9776C91.0349 46.4464 91.2278 46.6808 91.4967 46.6808Z"/>
<path d="M101.203 52.8683L99.3 17.491H102.238L103.369 41.558L104.377 17.491H107.314L105.412 52.8683H101.203Z"/>
<path d="M111.479 52.8683V17.5111H117.652V24.3415H114.618V31.2321H117.529V37.8817H114.618V45.9776H117.854V52.8683H111.479Z"/>
<path d="M122.141 52.8683V17.5111H126.876C127.665 17.5111 128.261 17.9263 128.664 18.7567C129.068 19.5736 129.337 20.7254 129.471 22.212C129.611 23.6852 129.682 25.4196 129.682 27.4151C129.682 29.3437 129.573 30.8839 129.357 32.0357C129.147 33.1875 128.746 33.9843 128.156 34.4263C128.641 34.654 128.98 35.2098 129.173 36.0937C129.372 36.9643 129.471 38.0959 129.471 39.4888V52.8683H126.429V39.0268C126.429 37.9955 126.335 37.3593 126.148 37.1183C125.967 36.8638 125.671 36.7366 125.262 36.7366V52.8683H122.141ZM125.28 30.6093H126.025C126.452 30.6093 126.665 29.5446 126.665 27.4151C126.665 26.0357 126.618 25.1317 126.525 24.7031C126.431 24.2745 126.256 24.0602 125.999 24.0602H125.28V30.6093Z"/>
<path d="M145.113 53.1897C143.879 53.1897 142.935 52.3393 142.281 50.6384C141.632 48.9241 141.307 46.4531 141.307 43.2254V26.4308C141.307 23.404 141.629 21.1071 142.272 19.5401C142.921 17.9732 143.868 17.1897 145.113 17.1897C146.358 17.1897 147.302 17.9732 147.945 19.5401C148.594 21.1071 148.918 23.404 148.918 26.4308V43.2254C148.918 46.4531 148.591 48.9241 147.936 50.6384C147.287 52.3393 146.346 53.1897 145.113 53.1897ZM145.139 46.6808C145.607 46.6808 145.841 45.6428 145.841 43.5669V26.3102C145.841 24.5692 145.613 23.6986 145.157 23.6986C144.642 23.6986 144.385 24.5893 144.385 26.3705V43.6071C144.385 44.7053 144.444 45.4955 144.56 45.9776C144.677 46.4464 144.87 46.6808 145.139 46.6808Z"/>
<path d="M156.994 53.1897C155.707 53.1897 154.76 52.366 154.153 50.7187C153.545 49.058 153.241 46.6205 153.241 43.4062V17.5111H156.239V43.125C156.239 43.7143 156.254 44.2834 156.283 44.8326C156.312 45.3683 156.38 45.8102 156.485 46.1584C156.59 46.5067 156.76 46.6808 156.994 46.6808C157.233 46.6808 157.406 46.5134 157.511 46.1785C157.616 45.8303 157.68 45.3817 157.704 44.8326C157.733 44.2834 157.748 43.7143 157.748 43.125V17.5111H160.746V43.4062C160.746 46.6205 160.442 49.058 159.835 50.7187C159.227 52.366 158.28 53.1897 156.994 53.1897Z"/>
<path d="M165.191 52.8683V17.5111H169.926C170.716 17.5111 171.312 17.9263 171.715 18.7567C172.119 19.5736 172.387 20.7254 172.522 22.212C172.662 23.6852 172.732 25.4196 172.732 27.4151C172.732 29.3437 172.624 30.8839 172.408 32.0357C172.197 33.1875 171.797 33.9843 171.207 34.4263C171.692 34.654 172.031 35.2098 172.224 36.0937C172.423 36.9643 172.522 38.0959 172.522 39.4888V52.8683H169.479V39.0268C169.479 37.9955 169.386 37.3593 169.199 37.1183C169.017 36.8638 168.722 36.7366 168.313 36.7366V52.8683H165.191ZM168.331 30.6093H169.076C169.503 30.6093 169.716 29.5446 169.716 27.4151C169.716 26.0357 169.669 25.1317 169.576 24.7031C169.482 24.2745 169.307 24.0602 169.05 24.0602H168.331V30.6093Z"/>
<path d="M188.164 53.1897C186.93 53.1897 185.986 52.3393 185.331 50.6384C184.682 48.9241 184.358 46.4531 184.358 43.2254V26.4308C184.358 23.404 184.68 21.1071 185.323 19.5401C185.971 17.9732 186.918 17.1897 188.164 17.1897C189.409 17.1897 190.353 17.9732 190.996 19.5401C191.645 21.1071 191.969 23.404 191.969 26.4308V43.2254C191.969 46.4531 191.642 48.9241 190.987 50.6384C190.338 52.3393 189.397 53.1897 188.164 53.1897ZM188.19 46.6808C188.658 46.6808 188.891 45.6428 188.891 43.5669V26.3102C188.891 24.5692 188.663 23.6986 188.207 23.6986C187.693 23.6986 187.436 24.5893 187.436 26.3705V43.6071C187.436 44.7053 187.494 45.4955 187.611 45.9776C187.728 46.4464 187.921 46.6808 188.19 46.6808Z"/>
<path d="M196.475 52.8683V17.5111H202.648V24.4018H199.579V30.0268H202.491V36.837H199.579V52.8683H196.475Z"/>
<path d="M206.909 52.8683V17.5111H213.082V24.4018H210.013V30.0268H212.925V36.837H210.013V52.8683H206.909Z"/>
<path d="M217.203 52.8683V17.5111H220.184V52.8683H217.203Z"/>
<path d="M228.268 53.1897C227.152 53.1897 226.251 52.3928 225.567 50.7991C224.889 49.2053 224.55 46.9754 224.55 44.1093V27.7968C224.55 24.3683 224.845 21.7433 225.436 19.9218C226.032 18.1004 227 17.1897 228.338 17.1897C229.069 17.1897 229.718 17.4977 230.285 18.1138C230.858 18.7299 231.308 19.654 231.635 20.8861C231.963 22.1049 232.126 23.6451 232.126 25.5067V31.6138H229.057V26.3906C229.057 25.3326 228.999 24.6227 228.882 24.2611C228.765 23.8861 228.584 23.6986 228.338 23.6986C228.052 23.6986 227.859 23.9397 227.759 24.4218C227.66 24.8906 227.61 25.5201 227.61 26.3102V44.0089C227.61 44.9866 227.672 45.6763 227.795 46.0781C227.923 46.4799 228.104 46.6808 228.338 46.6808C228.601 46.6808 228.785 46.433 228.891 45.9375C229.002 45.4419 229.057 44.7991 229.057 44.0089V37.6406H232.161V44.3303C232.161 47.4375 231.819 49.6942 231.135 51.1004C230.451 52.4933 229.496 53.1897 228.268 53.1897Z"/>
<path d="M236.317 52.8683V17.5111H239.298V52.8683H236.317Z"/>
<path d="M243.366 52.8683L244.857 17.5111H250.092L251.556 52.8683H248.636L248.417 47.1629H246.558L246.365 52.8683H243.366ZM246.777 41.5178H248.18L247.505 23.5379H247.365L246.777 41.5178Z"/>
<path d="M255.764 52.8683V17.5111H258.851V46.8415H262.025V52.8683H255.764Z"/>
<path d="M273.633 52.8683V17.5111H277.71C278.564 17.5111 279.239 17.9464 279.736 18.8169C280.239 19.6875 280.598 20.9263 280.814 22.5334C281.031 24.1406 281.139 26.0558 281.139 28.279C281.139 30.4218 281.048 32.2901 280.867 33.8839C280.686 35.4643 280.361 36.6897 279.894 37.5602C279.432 38.4308 278.774 38.866 277.921 38.866H276.667V52.8683H273.633ZM276.667 32.5178H276.842C277.415 32.5178 277.766 32.1495 277.894 31.4129C278.023 30.6763 278.087 29.5915 278.087 28.1584C278.087 26.8192 278.023 25.7879 277.894 25.0647C277.772 24.3281 277.476 23.9598 277.009 23.9598H276.667V32.5178Z"/>
<path d="M285.382 52.8683V17.5111H290.117C290.906 17.5111 291.503 17.9263 291.906 18.7567C292.309 19.5736 292.578 20.7254 292.713 22.212C292.853 23.6852 292.923 25.4196 292.923 27.4151C292.923 29.3437 292.815 30.8839 292.599 32.0357C292.388 33.1875 291.988 33.9843 291.397 34.4263C291.882 34.654 292.222 35.2098 292.414 36.0937C292.613 36.9643 292.713 38.0959 292.713 39.4888V52.8683H289.67V39.0268C289.67 37.9955 289.576 37.3593 289.389 37.1183C289.208 36.8638 288.913 36.7366 288.504 36.7366V52.8683H285.382ZM288.521 30.6093H289.267C289.693 30.6093 289.907 29.5446 289.907 27.4151C289.907 26.0357 289.86 25.1317 289.766 24.7031C289.673 24.2745 289.497 24.0602 289.24 24.0602H288.521V30.6093Z"/>
<path d="M300.884 53.1897C299.651 53.1897 298.707 52.3393 298.052 50.6384C297.403 48.9241 297.079 46.4531 297.079 43.2254V26.4308C297.079 23.404 297.4 21.1071 298.043 19.5401C298.692 17.9732 299.639 17.1897 300.884 17.1897C302.129 17.1897 303.073 17.9732 303.716 19.5401C304.365 21.1071 304.69 23.404 304.69 26.4308V43.2254C304.69 46.4531 304.362 48.9241 303.708 50.6384C303.059 52.3393 302.118 53.1897 300.884 53.1897ZM300.91 46.6808C301.378 46.6808 301.612 45.6428 301.612 43.5669V26.3102C301.612 24.5692 301.384 23.6986 300.928 23.6986C300.414 23.6986 300.156 24.5893 300.156 26.3705V43.6071C300.156 44.7053 300.215 45.4955 300.332 45.9776C300.449 46.4464 300.642 46.6808 300.91 46.6808Z"/>
<path d="M312.379 53.1897C310.175 53.1897 309.073 49.5736 309.073 42.3415V27.0937C309.073 20.491 310.336 17.1897 312.861 17.1897C313.902 17.1897 314.7 17.6718 315.255 18.6361C315.81 19.587 316.193 20.9799 316.404 22.8147C316.614 24.6495 316.719 26.8861 316.719 29.5245H313.703V26.3906C313.703 25.6272 313.656 24.991 313.563 24.4821C313.475 23.9598 313.288 23.6986 313.002 23.6986C312.645 23.6986 312.408 23.9732 312.291 24.5223C312.18 25.0714 312.125 25.6741 312.125 26.3303V43.4665C312.125 44.4174 312.177 45.1942 312.283 45.7968C312.394 46.3861 312.607 46.6808 312.923 46.6808C313.25 46.6808 313.466 46.3861 313.572 45.7968C313.683 45.1942 313.738 44.404 313.738 43.4263V38.3839H312.914V32.2768H316.684V52.8683H315.448L314.922 49.8951C314.384 52.0915 313.536 53.1897 312.379 53.1897Z"/>
<path d="M321.173 52.8683V17.5111H325.908C326.697 17.5111 327.294 17.9263 327.697 18.7567C328.1 19.5736 328.369 20.7254 328.504 22.212C328.644 23.6852 328.714 25.4196 328.714 27.4151C328.714 29.3437 328.606 30.8839 328.39 32.0357C328.179 33.1875 327.779 33.9843 327.188 34.4263C327.674 34.654 328.013 35.2098 328.205 36.0937C328.404 36.9643 328.504 38.0959 328.504 39.4888V52.8683H325.461V39.0268C325.461 37.9955 325.367 37.3593 325.18 37.1183C324.999 36.8638 324.704 36.7366 324.295 36.7366V52.8683H321.173ZM324.312 30.6093H325.058C325.484 30.6093 325.698 29.5446 325.698 27.4151C325.698 26.0357 325.651 25.1317 325.557 24.7031C325.464 24.2745 325.288 24.0602 325.031 24.0602H324.312V30.6093Z"/>
<path d="M332.572 52.8683L334.062 17.5111H339.297L340.761 52.8683H337.841L337.622 47.1629H335.763L335.57 52.8683H332.572ZM335.982 41.5178H337.385L336.71 23.5379H336.57L335.982 41.5178Z"/>
<path d="M344.97 52.8683V17.5111H349.669L350.967 39.0669L352.256 17.5111H357V52.8683H354.177V27.3951L352.405 52.8683H349.634L347.758 27.3951V52.8683H344.97Z"/>
</mask>
<path d="M45 52.8683V17.5111H49.244C50.3547 17.5111 51.1906 18.2209 51.7518 19.6406C52.313 21.0468 52.5936 23.1093 52.5936 25.8281V42.3817C52.5936 45.7299 52.3363 48.3147 51.8219 50.1361C51.3134 51.9576 50.419 52.8683 49.1388 52.8683H45ZM48.1041 46.6205H48.6389C49.206 46.6205 49.4895 45.991 49.4895 44.7321V26.491C49.4895 25.3125 49.4193 24.5558 49.2791 24.2209C49.1446 23.8727 48.8669 23.6986 48.446 23.6986H48.1041V46.6205Z" fill="#FAFAFA"/>
<path d="M56.9771 52.8683V17.5111H59.9584V52.8683H56.9771Z" fill="#FAFAFA"/>
<path d="M68.1125 53.1897C66.7036 53.1897 65.6865 52.3861 65.061 50.779C64.4414 49.1718 64.1315 46.6138 64.1315 43.1049V39.6495H67.183V44.0692C67.183 44.8861 67.2356 45.529 67.3408 45.9977C67.4519 46.4531 67.6419 46.6808 67.9108 46.6808C68.1914 46.6808 68.3843 46.4933 68.4895 46.1183C68.6006 45.7433 68.6561 45.1272 68.6561 44.2701C68.6561 43.1852 68.6093 42.2812 68.5158 41.558C68.4223 40.8214 68.2586 40.125 68.0248 39.4687C67.7968 38.7991 67.4782 38.0223 67.069 37.1384L65.6836 34.125C64.6489 31.8884 64.1315 29.3303 64.1315 26.4509C64.1315 23.4375 64.4355 21.1406 65.0435 19.5602C65.6573 17.9799 66.5429 17.1897 67.7003 17.1897C69.115 17.1897 70.1175 18.0535 70.708 19.7812C71.3042 21.5089 71.6023 24.1339 71.6023 27.6562H68.4632V25.2254C68.4632 24.7433 68.4018 24.3683 68.2791 24.1004C68.1622 23.8326 68.0014 23.6986 67.7968 23.6986C67.5513 23.6986 67.3701 23.8593 67.2531 24.1808C67.1421 24.4888 67.0865 24.8906 67.0865 25.3861C67.0865 25.8817 67.145 26.4174 67.2619 26.9933C67.3788 27.5692 67.6097 28.2321 67.9546 28.9821L69.7346 32.8995C70.0912 33.6763 70.4186 34.5 70.7167 35.3705C71.0149 36.2276 71.2545 37.2321 71.4357 38.3839C71.617 39.5223 71.7076 40.9151 71.7076 42.5625C71.7076 45.8839 71.4387 48.4888 70.9009 50.3772C70.3689 52.2522 69.4394 53.1897 68.1125 53.1897Z" fill="#FAFAFA"/>
<path d="M79.5985 53.1897C78.482 53.1897 77.5818 52.3928 76.8978 50.7991C76.2197 49.2053 75.8807 46.9754 75.8807 44.1093V27.7968C75.8807 24.3683 76.1759 21.7433 76.7663 19.9218C77.3626 18.1004 78.33 17.1897 79.6687 17.1897C80.3994 17.1897 81.0483 17.4977 81.6153 18.1138C82.1882 18.7299 82.6383 19.654 82.9657 20.8861C83.293 22.1049 83.4567 23.6451 83.4567 25.5067V31.6138H80.3877V26.3906C80.3877 25.3326 80.3293 24.6227 80.2123 24.2611C80.0954 23.8861 79.9142 23.6986 79.6687 23.6986C79.3823 23.6986 79.1893 23.9397 79.09 24.4218C78.9906 24.8906 78.9409 25.5201 78.9409 26.3102V44.0089C78.9409 44.9866 79.0023 45.6763 79.125 46.0781C79.2536 46.4799 79.4349 46.6808 79.6687 46.6808C79.9317 46.6808 80.1159 46.433 80.2211 45.9375C80.3322 45.4419 80.3877 44.7991 80.3877 44.0089V37.6406H83.4918V44.3303C83.4918 47.4375 83.1498 49.6942 82.4659 51.1004C81.7819 52.4933 80.8261 53.1897 79.5985 53.1897Z" fill="#FAFAFA"/>
<path d="M91.4704 53.1897C90.237 53.1897 89.2929 52.3393 88.6382 50.6384C87.9893 48.9241 87.6649 46.4531 87.6649 43.2254V26.4308C87.6649 23.404 87.9864 21.1071 88.6294 19.5401C89.2783 17.9732 90.2253 17.1897 91.4704 17.1897C92.7156 17.1897 93.6597 17.9732 94.3027 19.5401C94.9516 21.1071 95.276 23.404 95.276 26.4308V43.2254C95.276 46.4531 94.9486 48.9241 94.2939 50.6384C93.645 52.3393 92.7039 53.1897 91.4704 53.1897ZM91.4967 46.6808C91.9644 46.6808 92.1982 45.6428 92.1982 43.5669V26.3102C92.1982 24.5692 91.9702 23.6986 91.5143 23.6986C90.9999 23.6986 90.7427 24.5893 90.7427 26.3705V43.6071C90.7427 44.7053 90.8011 45.4955 90.918 45.9776C91.0349 46.4464 91.2278 46.6808 91.4967 46.6808Z" fill="#FAFAFA"/>
<path d="M101.203 52.8683L99.3 17.491H102.238L103.369 41.558L104.377 17.491H107.314L105.412 52.8683H101.203Z" fill="#FAFAFA"/>
<path d="M111.479 52.8683V17.5111H117.652V24.3415H114.618V31.2321H117.529V37.8817H114.618V45.9776H117.854V52.8683H111.479Z" fill="#FAFAFA"/>
<path d="M122.141 52.8683V17.5111H126.876C127.665 17.5111 128.261 17.9263 128.664 18.7567C129.068 19.5736 129.337 20.7254 129.471 22.212C129.611 23.6852 129.682 25.4196 129.682 27.4151C129.682 29.3437 129.573 30.8839 129.357 32.0357C129.147 33.1875 128.746 33.9843 128.156 34.4263C128.641 34.654 128.98 35.2098 129.173 36.0937C129.372 36.9643 129.471 38.0959 129.471 39.4888V52.8683H126.429V39.0268C126.429 37.9955 126.335 37.3593 126.148 37.1183C125.967 36.8638 125.671 36.7366 125.262 36.7366V52.8683H122.141ZM125.28 30.6093H126.025C126.452 30.6093 126.665 29.5446 126.665 27.4151C126.665 26.0357 126.618 25.1317 126.525 24.7031C126.431 24.2745 126.256 24.0602 125.999 24.0602H125.28V30.6093Z" fill="#FAFAFA"/>
<path d="M145.113 53.1897C143.879 53.1897 142.935 52.3393 142.281 50.6384C141.632 48.9241 141.307 46.4531 141.307 43.2254V26.4308C141.307 23.404 141.629 21.1071 142.272 19.5401C142.921 17.9732 143.868 17.1897 145.113 17.1897C146.358 17.1897 147.302 17.9732 147.945 19.5401C148.594 21.1071 148.918 23.404 148.918 26.4308V43.2254C148.918 46.4531 148.591 48.9241 147.936 50.6384C147.287 52.3393 146.346 53.1897 145.113 53.1897ZM145.139 46.6808C145.607 46.6808 145.841 45.6428 145.841 43.5669V26.3102C145.841 24.5692 145.613 23.6986 145.157 23.6986C144.642 23.6986 144.385 24.5893 144.385 26.3705V43.6071C144.385 44.7053 144.444 45.4955 144.56 45.9776C144.677 46.4464 144.87 46.6808 145.139 46.6808Z" fill="#FAFAFA"/>
<path d="M156.994 53.1897C155.707 53.1897 154.76 52.366 154.153 50.7187C153.545 49.058 153.241 46.6205 153.241 43.4062V17.5111H156.239V43.125C156.239 43.7143 156.254 44.2834 156.283 44.8326C156.312 45.3683 156.38 45.8102 156.485 46.1584C156.59 46.5067 156.76 46.6808 156.994 46.6808C157.233 46.6808 157.406 46.5134 157.511 46.1785C157.616 45.8303 157.68 45.3817 157.704 44.8326C157.733 44.2834 157.748 43.7143 157.748 43.125V17.5111H160.746V43.4062C160.746 46.6205 160.442 49.058 159.835 50.7187C159.227 52.366 158.28 53.1897 156.994 53.1897Z" fill="#FAFAFA"/>
<path d="M165.191 52.8683V17.5111H169.926C170.716 17.5111 171.312 17.9263 171.715 18.7567C172.119 19.5736 172.387 20.7254 172.522 22.212C172.662 23.6852 172.732 25.4196 172.732 27.4151C172.732 29.3437 172.624 30.8839 172.408 32.0357C172.197 33.1875 171.797 33.9843 171.207 34.4263C171.692 34.654 172.031 35.2098 172.224 36.0937C172.423 36.9643 172.522 38.0959 172.522 39.4888V52.8683H169.479V39.0268C169.479 37.9955 169.386 37.3593 169.199 37.1183C169.017 36.8638 168.722 36.7366 168.313 36.7366V52.8683H165.191ZM168.331 30.6093H169.076C169.503 30.6093 169.716 29.5446 169.716 27.4151C169.716 26.0357 169.669 25.1317 169.576 24.7031C169.482 24.2745 169.307 24.0602 169.05 24.0602H168.331V30.6093Z" fill="#FAFAFA"/>
<path d="M188.164 53.1897C186.93 53.1897 185.986 52.3393 185.331 50.6384C184.682 48.9241 184.358 46.4531 184.358 43.2254V26.4308C184.358 23.404 184.68 21.1071 185.323 19.5401C185.971 17.9732 186.918 17.1897 188.164 17.1897C189.409 17.1897 190.353 17.9732 190.996 19.5401C191.645 21.1071 191.969 23.404 191.969 26.4308V43.2254C191.969 46.4531 191.642 48.9241 190.987 50.6384C190.338 52.3393 189.397 53.1897 188.164 53.1897ZM188.19 46.6808C188.658 46.6808 188.891 45.6428 188.891 43.5669V26.3102C188.891 24.5692 188.663 23.6986 188.207 23.6986C187.693 23.6986 187.436 24.5893 187.436 26.3705V43.6071C187.436 44.7053 187.494 45.4955 187.611 45.9776C187.728 46.4464 187.921 46.6808 188.19 46.6808Z" fill="#FAFAFA"/>
<path d="M196.475 52.8683V17.5111H202.648V24.4018H199.579V30.0268H202.491V36.837H199.579V52.8683H196.475Z" fill="#FAFAFA"/>
<path d="M206.909 52.8683V17.5111H213.082V24.4018H210.013V30.0268H212.925V36.837H210.013V52.8683H206.909Z" fill="#FAFAFA"/>
<path d="M217.203 52.8683V17.5111H220.184V52.8683H217.203Z" fill="#FAFAFA"/>
<path d="M228.268 53.1897C227.152 53.1897 226.251 52.3928 225.567 50.7991C224.889 49.2053 224.55 46.9754 224.55 44.1093V27.7968C224.55 24.3683 224.845 21.7433 225.436 19.9218C226.032 18.1004 227 17.1897 228.338 17.1897C229.069 17.1897 229.718 17.4977 230.285 18.1138C230.858 18.7299 231.308 19.654 231.635 20.8861C231.963 22.1049 232.126 23.6451 232.126 25.5067V31.6138H229.057V26.3906C229.057 25.3326 228.999 24.6227 228.882 24.2611C228.765 23.8861 228.584 23.6986 228.338 23.6986C228.052 23.6986 227.859 23.9397 227.759 24.4218C227.66 24.8906 227.61 25.5201 227.61 26.3102V44.0089C227.61 44.9866 227.672 45.6763 227.795 46.0781C227.923 46.4799 228.104 46.6808 228.338 46.6808C228.601 46.6808 228.785 46.433 228.891 45.9375C229.002 45.4419 229.057 44.7991 229.057 44.0089V37.6406H232.161V44.3303C232.161 47.4375 231.819 49.6942 231.135 51.1004C230.451 52.4933 229.496 53.1897 228.268 53.1897Z" fill="#FAFAFA"/>
<path d="M236.317 52.8683V17.5111H239.298V52.8683H236.317Z" fill="#FAFAFA"/>
<path d="M243.366 52.8683L244.857 17.5111H250.092L251.556 52.8683H248.636L248.417 47.1629H246.558L246.365 52.8683H243.366ZM246.777 41.5178H248.18L247.505 23.5379H247.365L246.777 41.5178Z" fill="#FAFAFA"/>
<path d="M255.764 52.8683V17.5111H258.851V46.8415H262.025V52.8683H255.764Z" fill="#FAFAFA"/>
<path d="M273.633 52.8683V17.5111H277.71C278.564 17.5111 279.239 17.9464 279.736 18.8169C280.239 19.6875 280.598 20.9263 280.814 22.5334C281.031 24.1406 281.139 26.0558 281.139 28.279C281.139 30.4218 281.048 32.2901 280.867 33.8839C280.686 35.4643 280.361 36.6897 279.894 37.5602C279.432 38.4308 278.774 38.866 277.921 38.866H276.667V52.8683H273.633ZM276.667 32.5178H276.842C277.415 32.5178 277.766 32.1495 277.894 31.4129C278.023 30.6763 278.087 29.5915 278.087 28.1584C278.087 26.8192 278.023 25.7879 277.894 25.0647C277.772 24.3281 277.476 23.9598 277.009 23.9598H276.667V32.5178Z" fill="#FAFAFA"/>
<path d="M285.382 52.8683V17.5111H290.117C290.906 17.5111 291.503 17.9263 291.906 18.7567C292.309 19.5736 292.578 20.7254 292.713 22.212C292.853 23.6852 292.923 25.4196 292.923 27.4151C292.923 29.3437 292.815 30.8839 292.599 32.0357C292.388 33.1875 291.988 33.9843 291.397 34.4263C291.882 34.654 292.222 35.2098 292.414 36.0937C292.613 36.9643 292.713 38.0959 292.713 39.4888V52.8683H289.67V39.0268C289.67 37.9955 289.576 37.3593 289.389 37.1183C289.208 36.8638 288.913 36.7366 288.504 36.7366V52.8683H285.382ZM288.521 30.6093H289.267C289.693 30.6093 289.907 29.5446 289.907 27.4151C289.907 26.0357 289.86 25.1317 289.766 24.7031C289.673 24.2745 289.497 24.0602 289.24 24.0602H288.521V30.6093Z" fill="#FAFAFA"/>
<path d="M300.884 53.1897C299.651 53.1897 298.707 52.3393 298.052 50.6384C297.403 48.9241 297.079 46.4531 297.079 43.2254V26.4308C297.079 23.404 297.4 21.1071 298.043 19.5401C298.692 17.9732 299.639 17.1897 300.884 17.1897C302.129 17.1897 303.073 17.9732 303.716 19.5401C304.365 21.1071 304.69 23.404 304.69 26.4308V43.2254C304.69 46.4531 304.362 48.9241 303.708 50.6384C303.059 52.3393 302.118 53.1897 300.884 53.1897ZM300.91 46.6808C301.378 46.6808 301.612 45.6428 301.612 43.5669V26.3102C301.612 24.5692 301.384 23.6986 300.928 23.6986C300.414 23.6986 300.156 24.5893 300.156 26.3705V43.6071C300.156 44.7053 300.215 45.4955 300.332 45.9776C300.449 46.4464 300.642 46.6808 300.91 46.6808Z" fill="#FAFAFA"/>
<path d="M312.379 53.1897C310.175 53.1897 309.073 49.5736 309.073 42.3415V27.0937C309.073 20.491 310.336 17.1897 312.861 17.1897C313.902 17.1897 314.7 17.6718 315.255 18.6361C315.81 19.587 316.193 20.9799 316.404 22.8147C316.614 24.6495 316.719 26.8861 316.719 29.5245H313.703V26.3906C313.703 25.6272 313.656 24.991 313.563 24.4821C313.475 23.9598 313.288 23.6986 313.002 23.6986C312.645 23.6986 312.408 23.9732 312.291 24.5223C312.18 25.0714 312.125 25.6741 312.125 26.3303V43.4665C312.125 44.4174 312.177 45.1942 312.283 45.7968C312.394 46.3861 312.607 46.6808 312.923 46.6808C313.25 46.6808 313.466 46.3861 313.572 45.7968C313.683 45.1942 313.738 44.404 313.738 43.4263V38.3839H312.914V32.2768H316.684V52.8683H315.448L314.922 49.8951C314.384 52.0915 313.536 53.1897 312.379 53.1897Z" fill="#FAFAFA"/>
<path d="M321.173 52.8683V17.5111H325.908C326.697 17.5111 327.294 17.9263 327.697 18.7567C328.1 19.5736 328.369 20.7254 328.504 22.212C328.644 23.6852 328.714 25.4196 328.714 27.4151C328.714 29.3437 328.606 30.8839 328.39 32.0357C328.179 33.1875 327.779 33.9843 327.188 34.4263C327.674 34.654 328.013 35.2098 328.205 36.0937C328.404 36.9643 328.504 38.0959 328.504 39.4888V52.8683H325.461V39.0268C325.461 37.9955 325.367 37.3593 325.18 37.1183C324.999 36.8638 324.704 36.7366 324.295 36.7366V52.8683H321.173ZM324.312 30.6093H325.058C325.484 30.6093 325.698 29.5446 325.698 27.4151C325.698 26.0357 325.651 25.1317 325.557 24.7031C325.464 24.2745 325.288 24.0602 325.031 24.0602H324.312V30.6093Z" fill="#FAFAFA"/>
<path d="M332.572 52.8683L334.062 17.5111H339.297L340.761 52.8683H337.841L337.622 47.1629H335.763L335.57 52.8683H332.572ZM335.982 41.5178H337.385L336.71 23.5379H336.57L335.982 41.5178Z" fill="#FAFAFA"/>
<path d="M344.97 52.8683V17.5111H349.669L350.967 39.0669L352.256 17.5111H357V52.8683H354.177V27.3951L352.405 52.8683H349.634L347.758 27.3951V52.8683H344.97Z" fill="#FAFAFA"/>
<path d="M45 52.8683V17.5111H49.244C50.3547 17.5111 51.1906 18.2209 51.7518 19.6406C52.313 21.0468 52.5936 23.1093 52.5936 25.8281V42.3817C52.5936 45.7299 52.3363 48.3147 51.8219 50.1361C51.3134 51.9576 50.419 52.8683 49.1388 52.8683H45ZM48.1041 46.6205H48.6389C49.206 46.6205 49.4895 45.991 49.4895 44.7321V26.491C49.4895 25.3125 49.4193 24.5558 49.2791 24.2209C49.1446 23.8727 48.8669 23.6986 48.446 23.6986H48.1041V46.6205Z" stroke="black" stroke-width="1.63441" mask="url(#path-2-outside-1_273_966)"/>
<path d="M56.9771 52.8683V17.5111H59.9584V52.8683H56.9771Z" stroke="black" stroke-width="1.63441" mask="url(#path-2-outside-1_273_966)"/>
<path d="M68.1125 53.1897C66.7036 53.1897 65.6865 52.3861 65.061 50.779C64.4414 49.1718 64.1315 46.6138 64.1315 43.1049V39.6495H67.183V44.0692C67.183 44.8861 67.2356 45.529 67.3408 45.9977C67.4519 46.4531 67.6419 46.6808 67.9108 46.6808C68.1914 46.6808 68.3843 46.4933 68.4895 46.1183C68.6006 45.7433 68.6561 45.1272 68.6561 44.2701C68.6561 43.1852 68.6093 42.2812 68.5158 41.558C68.4223 40.8214 68.2586 40.125 68.0248 39.4687C67.7968 38.7991 67.4782 38.0223 67.069 37.1384L65.6836 34.125C64.6489 31.8884 64.1315 29.3303 64.1315 26.4509C64.1315 23.4375 64.4355 21.1406 65.0435 19.5602C65.6573 17.9799 66.5429 17.1897 67.7003 17.1897C69.115 17.1897 70.1175 18.0535 70.708 19.7812C71.3042 21.5089 71.6023 24.1339 71.6023 27.6562H68.4632V25.2254C68.4632 24.7433 68.4018 24.3683 68.2791 24.1004C68.1622 23.8326 68.0014 23.6986 67.7968 23.6986C67.5513 23.6986 67.3701 23.8593 67.2531 24.1808C67.1421 24.4888 67.0865 24.8906 67.0865 25.3861C67.0865 25.8817 67.145 26.4174 67.2619 26.9933C67.3788 27.5692 67.6097 28.2321 67.9546 28.9821L69.7346 32.8995C70.0912 33.6763 70.4186 34.5 70.7167 35.3705C71.0149 36.2276 71.2545 37.2321 71.4357 38.3839C71.617 39.5223 71.7076 40.9151 71.7076 42.5625C71.7076 45.8839 71.4387 48.4888 70.9009 50.3772C70.3689 52.2522 69.4394 53.1897 68.1125 53.1897Z" stroke="black" stroke-width="1.63441" mask="url(#path-2-outside-1_273_966)"/>
<path d="M79.5985 53.1897C78.482 53.1897 77.5818 52.3928 76.8978 50.7991C76.2197 49.2053 75.8807 46.9754 75.8807 44.1093V27.7968C75.8807 24.3683 76.1759 21.7433 76.7663 19.9218C77.3626 18.1004 78.33 17.1897 79.6687 17.1897C80.3994 17.1897 81.0483 17.4977 81.6153 18.1138C82.1882 18.7299 82.6383 19.654 82.9657 20.8861C83.293 22.1049 83.4567 23.6451 83.4567 25.5067V31.6138H80.3877V26.3906C80.3877 25.3326 80.3293 24.6227 80.2123 24.2611C80.0954 23.8861 79.9142 23.6986 79.6687 23.6986C79.3823 23.6986 79.1893 23.9397 79.09 24.4218C78.9906 24.8906 78.9409 25.5201 78.9409 26.3102V44.0089C78.9409 44.9866 79.0023 45.6763 79.125 46.0781C79.2536 46.4799 79.4349 46.6808 79.6687 46.6808C79.9317 46.6808 80.1159 46.433 80.2211 45.9375C80.3322 45.4419 80.3877 44.7991 80.3877 44.0089V37.6406H83.4918V44.3303C83.4918 47.4375 83.1498 49.6942 82.4659 51.1004C81.7819 52.4933 80.8261 53.1897 79.5985 53.1897Z" stroke="black" stroke-width="1.63441" mask="url(#path-2-outside-1_273_966)"/>
<path d="M91.4704 53.1897C90.237 53.1897 89.2929 52.3393 88.6382 50.6384C87.9893 48.9241 87.6649 46.4531 87.6649 43.2254V26.4308C87.6649 23.404 87.9864 21.1071 88.6294 19.5401C89.2783 17.9732 90.2253 17.1897 91.4704 17.1897C92.7156 17.1897 93.6597 17.9732 94.3027 19.5401C94.9516 21.1071 95.276 23.404 95.276 26.4308V43.2254C95.276 46.4531 94.9486 48.9241 94.2939 50.6384C93.645 52.3393 92.7039 53.1897 91.4704 53.1897ZM91.4967 46.6808C91.9644 46.6808 92.1982 45.6428 92.1982 43.5669V26.3102C92.1982 24.5692 91.9702 23.6986 91.5143 23.6986C90.9999 23.6986 90.7427 24.5893 90.7427 26.3705V43.6071C90.7427 44.7053 90.8011 45.4955 90.918 45.9776C91.0349 46.4464 91.2278 46.6808 91.4967 46.6808Z" stroke="black" stroke-width="1.63441" mask="url(#path-2-outside-1_273_966)"/>
<path d="M101.203 52.8683L99.3 17.491H102.238L103.369 41.558L104.377 17.491H107.314L105.412 52.8683H101.203Z" stroke="black" stroke-width="1.63441" mask="url(#path-2-outside-1_273_966)"/>
<path d="M111.479 52.8683V17.5111H117.652V24.3415H114.618V31.2321H117.529V37.8817H114.618V45.9776H117.854V52.8683H111.479Z" stroke="black" stroke-width="1.63441" mask="url(#path-2-outside-1_273_966)"/>
<path d="M122.141 52.8683V17.5111H126.876C127.665 17.5111 128.261 17.9263 128.664 18.7567C129.068 19.5736 129.337 20.7254 129.471 22.212C129.611 23.6852 129.682 25.4196 129.682 27.4151C129.682 29.3437 129.573 30.8839 129.357 32.0357C129.147 33.1875 128.746 33.9843 128.156 34.4263C128.641 34.654 128.98 35.2098 129.173 36.0937C129.372 36.9643 129.471 38.0959 129.471 39.4888V52.8683H126.429V39.0268C126.429 37.9955 126.335 37.3593 126.148 37.1183C125.967 36.8638 125.671 36.7366 125.262 36.7366V52.8683H122.141ZM125.28 30.6093H126.025C126.452 30.6093 126.665 29.5446 126.665 27.4151C126.665 26.0357 126.618 25.1317 126.525 24.7031C126.431 24.2745 126.256 24.0602 125.999 24.0602H125.28V30.6093Z" stroke="black" stroke-width="1.63441" mask="url(#path-2-outside-1_273_966)"/>
<path d="M145.113 53.1897C143.879 53.1897 142.935 52.3393 142.281 50.6384C141.632 48.9241 141.307 46.4531 141.307 43.2254V26.4308C141.307 23.404 141.629 21.1071 142.272 19.5401C142.921 17.9732 143.868 17.1897 145.113 17.1897C146.358 17.1897 147.302 17.9732 147.945 19.5401C148.594 21.1071 148.918 23.404 148.918 26.4308V43.2254C148.918 46.4531 148.591 48.9241 147.936 50.6384C147.287 52.3393 146.346 53.1897 145.113 53.1897ZM145.139 46.6808C145.607 46.6808 145.841 45.6428 145.841 43.5669V26.3102C145.841 24.5692 145.613 23.6986 145.157 23.6986C144.642 23.6986 144.385 24.5893 144.385 26.3705V43.6071C144.385 44.7053 144.444 45.4955 144.56 45.9776C144.677 46.4464 144.87 46.6808 145.139 46.6808Z" stroke="black" stroke-width="1.63441" mask="url(#path-2-outside-1_273_966)"/>
<path d="M156.994 53.1897C155.707 53.1897 154.76 52.366 154.153 50.7187C153.545 49.058 153.241 46.6205 153.241 43.4062V17.5111H156.239V43.125C156.239 43.7143 156.254 44.2834 156.283 44.8326C156.312 45.3683 156.38 45.8102 156.485 46.1584C156.59 46.5067 156.76 46.6808 156.994 46.6808C157.233 46.6808 157.406 46.5134 157.511 46.1785C157.616 45.8303 157.68 45.3817 157.704 44.8326C157.733 44.2834 157.748 43.7143 157.748 43.125V17.5111H160.746V43.4062C160.746 46.6205 160.442 49.058 159.835 50.7187C159.227 52.366 158.28 53.1897 156.994 53.1897Z" stroke="black" stroke-width="1.63441" mask="url(#path-2-outside-1_273_966)"/>
<path d="M165.191 52.8683V17.5111H169.926C170.716 17.5111 171.312 17.9263 171.715 18.7567C172.119 19.5736 172.387 20.7254 172.522 22.212C172.662 23.6852 172.732 25.4196 172.732 27.4151C172.732 29.3437 172.624 30.8839 172.408 32.0357C172.197 33.1875 171.797 33.9843 171.207 34.4263C171.692 34.654 172.031 35.2098 172.224 36.0937C172.423 36.9643 172.522 38.0959 172.522 39.4888V52.8683H169.479V39.0268C169.479 37.9955 169.386 37.3593 169.199 37.1183C169.017 36.8638 168.722 36.7366 168.313 36.7366V52.8683H165.191ZM168.331 30.6093H169.076C169.503 30.6093 169.716 29.5446 169.716 27.4151C169.716 26.0357 169.669 25.1317 169.576 24.7031C169.482 24.2745 169.307 24.0602 169.05 24.0602H168.331V30.6093Z" stroke="black" stroke-width="1.63441" mask="url(#path-2-outside-1_273_966)"/>
<path d="M188.164 53.1897C186.93 53.1897 185.986 52.3393 185.331 50.6384C184.682 48.9241 184.358 46.4531 184.358 43.2254V26.4308C184.358 23.404 184.68 21.1071 185.323 19.5401C185.971 17.9732 186.918 17.1897 188.164 17.1897C189.409 17.1897 190.353 17.9732 190.996 19.5401C191.645 21.1071 191.969 23.404 191.969 26.4308V43.2254C191.969 46.4531 191.642 48.9241 190.987 50.6384C190.338 52.3393 189.397 53.1897 188.164 53.1897ZM188.19 46.6808C188.658 46.6808 188.891 45.6428 188.891 43.5669V26.3102C188.891 24.5692 188.663 23.6986 188.207 23.6986C187.693 23.6986 187.436 24.5893 187.436 26.3705V43.6071C187.436 44.7053 187.494 45.4955 187.611 45.9776C187.728 46.4464 187.921 46.6808 188.19 46.6808Z" stroke="black" stroke-width="1.63441" mask="url(#path-2-outside-1_273_966)"/>
<path d="M196.475 52.8683V17.5111H202.648V24.4018H199.579V30.0268H202.491V36.837H199.579V52.8683H196.475Z" stroke="black" stroke-width="1.63441" mask="url(#path-2-outside-1_273_966)"/>
<path d="M206.909 52.8683V17.5111H213.082V24.4018H210.013V30.0268H212.925V36.837H210.013V52.8683H206.909Z" stroke="black" stroke-width="1.63441" mask="url(#path-2-outside-1_273_966)"/>
<path d="M217.203 52.8683V17.5111H220.184V52.8683H217.203Z" stroke="black" stroke-width="1.63441" mask="url(#path-2-outside-1_273_966)"/>
<path d="M228.268 53.1897C227.152 53.1897 226.251 52.3928 225.567 50.7991C224.889 49.2053 224.55 46.9754 224.55 44.1093V27.7968C224.55 24.3683 224.845 21.7433 225.436 19.9218C226.032 18.1004 227 17.1897 228.338 17.1897C229.069 17.1897 229.718 17.4977 230.285 18.1138C230.858 18.7299 231.308 19.654 231.635 20.8861C231.963 22.1049 232.126 23.6451 232.126 25.5067V31.6138H229.057V26.3906C229.057 25.3326 228.999 24.6227 228.882 24.2611C228.765 23.8861 228.584 23.6986 228.338 23.6986C228.052 23.6986 227.859 23.9397 227.759 24.4218C227.66 24.8906 227.61 25.5201 227.61 26.3102V44.0089C227.61 44.9866 227.672 45.6763 227.795 46.0781C227.923 46.4799 228.104 46.6808 228.338 46.6808C228.601 46.6808 228.785 46.433 228.891 45.9375C229.002 45.4419 229.057 44.7991 229.057 44.0089V37.6406H232.161V44.3303C232.161 47.4375 231.819 49.6942 231.135 51.1004C230.451 52.4933 229.496 53.1897 228.268 53.1897Z" stroke="black" stroke-width="1.63441" mask="url(#path-2-outside-1_273_966)"/>
<path d="M236.317 52.8683V17.5111H239.298V52.8683H236.317Z" stroke="black" stroke-width="1.63441" mask="url(#path-2-outside-1_273_966)"/>
<path d="M243.366 52.8683L244.857 17.5111H250.092L251.556 52.8683H248.636L248.417 47.1629H246.558L246.365 52.8683H243.366ZM246.777 41.5178H248.18L247.505 23.5379H247.365L246.777 41.5178Z" stroke="black" stroke-width="1.63441" mask="url(#path-2-outside-1_273_966)"/>
<path d="M255.764 52.8683V17.5111H258.851V46.8415H262.025V52.8683H255.764Z" stroke="black" stroke-width="1.63441" mask="url(#path-2-outside-1_273_966)"/>
<path d="M273.633 52.8683V17.5111H277.71C278.564 17.5111 279.239 17.9464 279.736 18.8169C280.239 19.6875 280.598 20.9263 280.814 22.5334C281.031 24.1406 281.139 26.0558 281.139 28.279C281.139 30.4218 281.048 32.2901 280.867 33.8839C280.686 35.4643 280.361 36.6897 279.894 37.5602C279.432 38.4308 278.774 38.866 277.921 38.866H276.667V52.8683H273.633ZM276.667 32.5178H276.842C277.415 32.5178 277.766 32.1495 277.894 31.4129C278.023 30.6763 278.087 29.5915 278.087 28.1584C278.087 26.8192 278.023 25.7879 277.894 25.0647C277.772 24.3281 277.476 23.9598 277.009 23.9598H276.667V32.5178Z" stroke="black" stroke-width="1.63441" mask="url(#path-2-outside-1_273_966)"/>
<path d="M285.382 52.8683V17.5111H290.117C290.906 17.5111 291.503 17.9263 291.906 18.7567C292.309 19.5736 292.578 20.7254 292.713 22.212C292.853 23.6852 292.923 25.4196 292.923 27.4151C292.923 29.3437 292.815 30.8839 292.599 32.0357C292.388 33.1875 291.988 33.9843 291.397 34.4263C291.882 34.654 292.222 35.2098 292.414 36.0937C292.613 36.9643 292.713 38.0959 292.713 39.4888V52.8683H289.67V39.0268C289.67 37.9955 289.576 37.3593 289.389 37.1183C289.208 36.8638 288.913 36.7366 288.504 36.7366V52.8683H285.382ZM288.521 30.6093H289.267C289.693 30.6093 289.907 29.5446 289.907 27.4151C289.907 26.0357 289.86 25.1317 289.766 24.7031C289.673 24.2745 289.497 24.0602 289.24 24.0602H288.521V30.6093Z" stroke="black" stroke-width="1.63441" mask="url(#path-2-outside-1_273_966)"/>
<path d="M300.884 53.1897C299.651 53.1897 298.707 52.3393 298.052 50.6384C297.403 48.9241 297.079 46.4531 297.079 43.2254V26.4308C297.079 23.404 297.4 21.1071 298.043 19.5401C298.692 17.9732 299.639 17.1897 300.884 17.1897C302.129 17.1897 303.073 17.9732 303.716 19.5401C304.365 21.1071 304.69 23.404 304.69 26.4308V43.2254C304.69 46.4531 304.362 48.9241 303.708 50.6384C303.059 52.3393 302.118 53.1897 300.884 53.1897ZM300.91 46.6808C301.378 46.6808 301.612 45.6428 301.612 43.5669V26.3102C301.612 24.5692 301.384 23.6986 300.928 23.6986C300.414 23.6986 300.156 24.5893 300.156 26.3705V43.6071C300.156 44.7053 300.215 45.4955 300.332 45.9776C300.449 46.4464 300.642 46.6808 300.91 46.6808Z" stroke="black" stroke-width="1.63441" mask="url(#path-2-outside-1_273_966)"/>
<path d="M312.379 53.1897C310.175 53.1897 309.073 49.5736 309.073 42.3415V27.0937C309.073 20.491 310.336 17.1897 312.861 17.1897C313.902 17.1897 314.7 17.6718 315.255 18.6361C315.81 19.587 316.193 20.9799 316.404 22.8147C316.614 24.6495 316.719 26.8861 316.719 29.5245H313.703V26.3906C313.703 25.6272 313.656 24.991 313.563 24.4821C313.475 23.9598 313.288 23.6986 313.002 23.6986C312.645 23.6986 312.408 23.9732 312.291 24.5223C312.18 25.0714 312.125 25.6741 312.125 26.3303V43.4665C312.125 44.4174 312.177 45.1942 312.283 45.7968C312.394 46.3861 312.607 46.6808 312.923 46.6808C313.25 46.6808 313.466 46.3861 313.572 45.7968C313.683 45.1942 313.738 44.404 313.738 43.4263V38.3839H312.914V32.2768H316.684V52.8683H315.448L314.922 49.8951C314.384 52.0915 313.536 53.1897 312.379 53.1897Z" stroke="black" stroke-width="1.63441" mask="url(#path-2-outside-1_273_966)"/>
<path d="M321.173 52.8683V17.5111H325.908C326.697 17.5111 327.294 17.9263 327.697 18.7567C328.1 19.5736 328.369 20.7254 328.504 22.212C328.644 23.6852 328.714 25.4196 328.714 27.4151C328.714 29.3437 328.606 30.8839 328.39 32.0357C328.179 33.1875 327.779 33.9843 327.188 34.4263C327.674 34.654 328.013 35.2098 328.205 36.0937C328.404 36.9643 328.504 38.0959 328.504 39.4888V52.8683H325.461V39.0268C325.461 37.9955 325.367 37.3593 325.18 37.1183C324.999 36.8638 324.704 36.7366 324.295 36.7366V52.8683H321.173ZM324.312 30.6093H325.058C325.484 30.6093 325.698 29.5446 325.698 27.4151C325.698 26.0357 325.651 25.1317 325.557 24.7031C325.464 24.2745 325.288 24.0602 325.031 24.0602H324.312V30.6093Z" stroke="black" stroke-width="1.63441" mask="url(#path-2-outside-1_273_966)"/>
<path d="M332.572 52.8683L334.062 17.5111H339.297L340.761 52.8683H337.841L337.622 47.1629H335.763L335.57 52.8683H332.572ZM335.982 41.5178H337.385L336.71 23.5379H336.57L335.982 41.5178Z" stroke="black" stroke-width="1.63441" mask="url(#path-2-outside-1_273_966)"/>
<path d="M344.97 52.8683V17.5111H349.669L350.967 39.0669L352.256 17.5111H357V52.8683H354.177V27.3951L352.405 52.8683H349.634L347.758 27.3951V52.8683H344.97Z" stroke="black" stroke-width="1.63441" mask="url(#path-2-outside-1_273_966)"/>
</svg>
